<mxfile host="app.diagrams.net" modified="2021-05-15T02:42:19.533Z" agent="5.0 (Windows NT 10.0; Win64; x64) AppleWebKit/537.36 (KHTML, like Gecko) Chrome/90.0.4430.212 Safari/537.36" etag="LSbCIZ2jKu2keHmXjczX" version="14.6.13" type="github">
  <diagram id="LMZYWBDZeodJGunTcCda" name="Page-1">
    <mxGraphModel dx="868" dy="450" grid="1" gridSize="10" guides="1" tooltips="1" connect="1" arrows="1" fold="1" page="1" pageScale="1" pageWidth="827" pageHeight="1169" math="0" shadow="0">
      <root>
        <mxCell id="0" />
        <mxCell id="1" parent="0" />
        <mxCell id="zu7ishsAce-m9axhOBut-2" style="edgeStyle=orthogonalEdgeStyle;rounded=0;orthogonalLoop=1;jettySize=auto;html=1;exitX=0.5;exitY=1;exitDx=0;exitDy=0;" parent="1" source="zu7ishsAce-m9axhOBut-1" target="zu7ishsAce-m9axhOBut-3" edge="1">
          <mxGeometry relative="1" as="geometry">
            <mxPoint x="140" y="130" as="targetPoint" />
          </mxGeometry>
        </mxCell>
        <mxCell id="zu7ishsAce-m9axhOBut-1" value="Readme con links" style="rounded=0;whiteSpace=wrap;html=1;fillColor=#f8cecc;strokeColor=#b85450;" parent="1" vertex="1">
          <mxGeometry x="80" y="30" width="120" height="60" as="geometry" />
        </mxCell>
        <mxCell id="zu7ishsAce-m9axhOBut-4" style="edgeStyle=orthogonalEdgeStyle;rounded=0;orthogonalLoop=1;jettySize=auto;html=1;exitX=0.5;exitY=1;exitDx=0;exitDy=0;" parent="1" source="zu7ishsAce-m9axhOBut-3" target="zu7ishsAce-m9axhOBut-5" edge="1">
          <mxGeometry relative="1" as="geometry">
            <mxPoint x="140" y="230" as="targetPoint" />
          </mxGeometry>
        </mxCell>
        <mxCell id="zu7ishsAce-m9axhOBut-6" style="edgeStyle=orthogonalEdgeStyle;rounded=0;orthogonalLoop=1;jettySize=auto;html=1;exitX=1;exitY=0.5;exitDx=0;exitDy=0;" parent="1" source="zu7ishsAce-m9axhOBut-3" target="zu7ishsAce-m9axhOBut-7" edge="1">
          <mxGeometry relative="1" as="geometry">
            <mxPoint x="280" y="160" as="targetPoint" />
          </mxGeometry>
        </mxCell>
        <mxCell id="zu7ishsAce-m9axhOBut-3" value="Seleccionar links Extraer en un arreglo u objeto ?" style="rounded=0;whiteSpace=wrap;html=1;fillColor=#ffe6cc;strokeColor=#d79b00;" parent="1" vertex="1">
          <mxGeometry x="210" y="130" width="120" height="60" as="geometry" />
        </mxCell>
        <mxCell id="zu7ishsAce-m9axhOBut-5" value="Verificar links, ok or failure" style="rounded=0;whiteSpace=wrap;html=1;fillColor=#dae8fc;strokeColor=#6c8ebf;" parent="1" vertex="1">
          <mxGeometry x="370" y="230" width="120" height="60" as="geometry" />
        </mxCell>
        <mxCell id="zu7ishsAce-m9axhOBut-7" value="Expresiones regulares" style="ellipse;whiteSpace=wrap;html=1;fillColor=#ffe6cc;strokeColor=#d79b00;" parent="1" vertex="1">
          <mxGeometry x="390" y="80" width="70" height="60" as="geometry" />
        </mxCell>
        <mxCell id="zu7ishsAce-m9axhOBut-8" value="&lt;h1&gt;Notes:&lt;/h1&gt;&lt;div&gt;I am not really sure how i could take this regular expressions in order to get all the links contented in a markdown archive, but, for sure i could write an expression to identify url&#39;s&lt;/div&gt;" style="text;html=1;spacing=5;spacingTop=-20;whiteSpace=wrap;overflow=hidden;rounded=0;strokeColor=#000000;" parent="1" vertex="1">
          <mxGeometry x="610" y="30" width="190" height="190" as="geometry" />
        </mxCell>
        <mxCell id="dNcCExtmPKQ1kwuK6Pwa-16" style="edgeStyle=orthogonalEdgeStyle;rounded=0;orthogonalLoop=1;jettySize=auto;html=1;exitX=1;exitY=0.5;exitDx=0;exitDy=0;entryX=0;entryY=0.5;entryDx=0;entryDy=0;" edge="1" parent="1" source="dNcCExtmPKQ1kwuK6Pwa-18" target="dNcCExtmPKQ1kwuK6Pwa-19">
          <mxGeometry relative="1" as="geometry" />
        </mxCell>
        <mxCell id="dNcCExtmPKQ1kwuK6Pwa-17" style="edgeStyle=orthogonalEdgeStyle;rounded=0;orthogonalLoop=1;jettySize=auto;html=1;exitX=0.5;exitY=1;exitDx=0;exitDy=0;entryX=0.5;entryY=0;entryDx=0;entryDy=0;" edge="1" parent="1" source="dNcCExtmPKQ1kwuK6Pwa-18" target="dNcCExtmPKQ1kwuK6Pwa-21">
          <mxGeometry relative="1" as="geometry" />
        </mxCell>
        <mxCell id="dNcCExtmPKQ1kwuK6Pwa-18" value="Extraer links de un archivo markdown" style="rounded=0;whiteSpace=wrap;html=1;fillColor=#dae8fc;strokeColor=#6c8ebf;" vertex="1" parent="1">
          <mxGeometry x="160" y="380" width="120" height="60" as="geometry" />
        </mxCell>
        <mxCell id="dNcCExtmPKQ1kwuK6Pwa-19" value="&lt;h1&gt;?&lt;/h1&gt;" style="ellipse;whiteSpace=wrap;html=1;aspect=fixed;fillColor=#f5f5f5;strokeColor=#666666;fontColor=#333333;" vertex="1" parent="1">
          <mxGeometry x="330" y="390" width="40" height="40" as="geometry" />
        </mxCell>
        <mxCell id="dNcCExtmPKQ1kwuK6Pwa-20" style="edgeStyle=orthogonalEdgeStyle;rounded=0;orthogonalLoop=1;jettySize=auto;html=1;exitX=1;exitY=0.5;exitDx=0;exitDy=0;" edge="1" parent="1" source="dNcCExtmPKQ1kwuK6Pwa-21" target="dNcCExtmPKQ1kwuK6Pwa-22">
          <mxGeometry relative="1" as="geometry" />
        </mxCell>
        <mxCell id="dNcCExtmPKQ1kwuK6Pwa-29" style="edgeStyle=orthogonalEdgeStyle;rounded=0;orthogonalLoop=1;jettySize=auto;html=1;exitX=0.5;exitY=1;exitDx=0;exitDy=0;entryX=0.5;entryY=0;entryDx=0;entryDy=0;" edge="1" parent="1" source="dNcCExtmPKQ1kwuK6Pwa-21" target="dNcCExtmPKQ1kwuK6Pwa-24">
          <mxGeometry relative="1" as="geometry" />
        </mxCell>
        <mxCell id="dNcCExtmPKQ1kwuK6Pwa-21" value="Validar si un link es un link" style="rounded=0;whiteSpace=wrap;html=1;fillColor=#dae8fc;strokeColor=#6c8ebf;" vertex="1" parent="1">
          <mxGeometry x="160" y="470" width="120" height="60" as="geometry" />
        </mxCell>
        <mxCell id="dNcCExtmPKQ1kwuK6Pwa-22" value="Expresiones regulares" style="rounded=0;whiteSpace=wrap;html=1;fillColor=#d5e8d4;strokeColor=#82b366;" vertex="1" parent="1">
          <mxGeometry x="330" y="480" width="70" height="40" as="geometry" />
        </mxCell>
        <mxCell id="dNcCExtmPKQ1kwuK6Pwa-23" style="edgeStyle=orthogonalEdgeStyle;rounded=0;orthogonalLoop=1;jettySize=auto;html=1;exitX=1;exitY=0.5;exitDx=0;exitDy=0;entryX=0;entryY=0.5;entryDx=0;entryDy=0;" edge="1" parent="1" source="dNcCExtmPKQ1kwuK6Pwa-24" target="dNcCExtmPKQ1kwuK6Pwa-26">
          <mxGeometry relative="1" as="geometry" />
        </mxCell>
        <mxCell id="dNcCExtmPKQ1kwuK6Pwa-24" value="Validar respuesta de esos links" style="rounded=0;whiteSpace=wrap;html=1;fillColor=#dae8fc;strokeColor=#6c8ebf;" vertex="1" parent="1">
          <mxGeometry x="160" y="560" width="120" height="60" as="geometry" />
        </mxCell>
        <mxCell id="dNcCExtmPKQ1kwuK6Pwa-25" style="edgeStyle=orthogonalEdgeStyle;rounded=0;orthogonalLoop=1;jettySize=auto;html=1;exitX=1;exitY=0.5;exitDx=0;exitDy=0;" edge="1" parent="1" source="dNcCExtmPKQ1kwuK6Pwa-26" target="dNcCExtmPKQ1kwuK6Pwa-27">
          <mxGeometry relative="1" as="geometry">
            <mxPoint x="400" y="590" as="targetPoint" />
          </mxGeometry>
        </mxCell>
        <mxCell id="dNcCExtmPKQ1kwuK6Pwa-26" value="&lt;h1&gt;?&lt;/h1&gt;" style="ellipse;whiteSpace=wrap;html=1;aspect=fixed;fillColor=#f5f5f5;strokeColor=#666666;fontColor=#333333;" vertex="1" parent="1">
          <mxGeometry x="330" y="570" width="40" height="40" as="geometry" />
        </mxCell>
        <mxCell id="dNcCExtmPKQ1kwuK6Pwa-27" value="Maybe http protocols help (get)" style="rounded=0;whiteSpace=wrap;html=1;fillColor=#f5f5f5;strokeColor=#666666;fontColor=#333333;" vertex="1" parent="1">
          <mxGeometry x="420" y="560" width="120" height="60" as="geometry" />
        </mxCell>
        <mxCell id="dNcCExtmPKQ1kwuK6Pwa-28" value="" style="rounded=0;whiteSpace=wrap;html=1;fillColor=none;" vertex="1" parent="1">
          <mxGeometry x="75" y="370" width="550" height="290" as="geometry" />
        </mxCell>
      </root>
    </mxGraphModel>
  </diagram>
</mxfile>
